<svg width="228" height="228" viewBox="0 0 228 228" fill="none" xmlns="http://www.w3.org/2000/svg">
<g clip-path="url(#clip0_495_744)" filter="url(#filter0_d_495_744)">
<g filter="url(#filter1_d_495_744)">
<path d="M181.891 152.109C176.734 146.953 170.862 145.378 164.273 147.383L150.523 133.633C162.841 118.451 169 101.406 169 82.5C169 59.5833 160.979 40.1042 144.938 24.0625C128.896 8.02083 109.417 0 86.5 0C63.5833 0 44.1042 8.02083 28.0625 24.0625C12.0208 40.1042 4 59.5833 4 82.5C4 105.417 12.0208 124.896 28.0625 140.938C44.1042 156.979 63.5833 165 86.5 165C106.552 165 123.596 158.841 137.633 146.523L151.383 160.273C149.664 167.148 151.24 173.021 156.109 177.891L192.633 214.414C196.357 218.138 200.654 220 205.523 220C210.68 220 214.977 218.138 218.414 214.414C222.138 210.69 224 206.393 224 201.523C224 196.654 222.138 192.357 218.414 188.633L181.891 152.109ZM86.5 146.523C68.7396 146.523 53.6289 140.293 41.168 127.832C28.707 115.371 22.4766 100.26 22.4766 82.5C22.4766 64.7396 28.707 49.6289 41.168 37.168C53.6289 24.707 68.7396 18.4766 86.5 18.4766C104.26 18.4766 119.371 24.707 131.832 37.168C144.293 49.6289 150.523 64.7396 150.523 82.5C150.523 100.26 144.293 115.371 131.832 127.832C119.371 140.293 104.26 146.523 86.5 146.523Z" fill="#4B2E83"/>
</g>
<path d="M39.7504 95.4C39.5157 95.4 39.3237 95.3254 39.1744 95.176C39.025 95.0267 38.9504 94.8347 38.9504 94.6V73.8C38.9504 73.5654 39.025 73.3734 39.1744 73.224C39.3237 73.0747 39.5157 73 39.7504 73H48.4544C51.2064 73 53.3717 73.64 54.9504 74.92C56.5504 76.1787 57.3504 77.9707 57.3504 80.296C57.3504 81.8107 56.977 83.0907 56.2304 84.136C55.505 85.1814 54.545 85.9707 53.3504 86.504L57.7664 94.376C57.8304 94.504 57.8624 94.6214 57.8624 94.728C57.8624 94.8987 57.7877 95.0587 57.6384 95.208C57.5104 95.336 57.3504 95.4 57.1584 95.4H52.9344C52.529 95.4 52.2304 95.304 52.0384 95.112C51.8464 94.8987 51.7077 94.7067 51.6224 94.536L47.9744 87.496H44.6784V94.6C44.6784 94.8347 44.6037 95.0267 44.4544 95.176C44.305 95.3254 44.113 95.4 43.8784 95.4H39.7504ZM44.6784 82.984H48.3904C49.393 82.984 50.1397 82.7387 50.6304 82.248C51.1424 81.7574 51.3984 81.0854 51.3984 80.232C51.3984 79.4 51.153 78.728 50.6624 78.216C50.193 77.704 49.4357 77.448 48.3904 77.448H44.6784V82.984ZM68.1846 95.72C65.6673 95.72 63.6619 95.0374 62.1686 93.672C60.6753 92.3067 59.8966 90.28 59.8326 87.592C59.8326 87.4427 59.8326 87.2507 59.8326 87.016C59.8326 86.7814 59.8326 86.6 59.8326 86.472C59.8966 84.7867 60.2699 83.3467 60.9526 82.152C61.6566 80.936 62.6166 80.0187 63.8326 79.4C65.0699 78.76 66.5099 78.44 68.1526 78.44C70.0299 78.44 71.5766 78.8134 72.7926 79.56C74.0299 80.3067 74.9579 81.32 75.5766 82.6C76.1953 83.88 76.5046 85.3414 76.5046 86.984V87.752C76.5046 87.9867 76.4193 88.1787 76.2486 88.328C76.0993 88.4774 75.9179 88.552 75.7046 88.552H65.4646C65.4646 88.5734 65.4646 88.6054 65.4646 88.648C65.4646 88.6907 65.4646 88.7334 65.4646 88.776C65.4859 89.3947 65.5926 89.96 65.7846 90.472C65.9766 90.984 66.2753 91.3894 66.6806 91.688C67.0859 91.9867 67.5766 92.136 68.1526 92.136C68.5793 92.136 68.9313 92.072 69.2086 91.944C69.5073 91.7947 69.7526 91.6347 69.9446 91.464C70.1366 91.272 70.2859 91.112 70.3926 90.984C70.5846 90.7707 70.7339 90.6427 70.8406 90.6C70.9686 90.536 71.1606 90.504 71.4166 90.504H75.3846C75.5979 90.504 75.7686 90.568 75.8966 90.696C76.0459 90.8027 76.1099 90.9627 76.0886 91.176C76.0673 91.5387 75.8859 91.976 75.5446 92.488C75.2033 93 74.7019 93.512 74.0406 94.024C73.4006 94.5147 72.5899 94.92 71.6086 95.24C70.6273 95.56 69.4859 95.72 68.1846 95.72ZM65.4646 85.384H70.8726V85.32C70.8726 84.6374 70.7659 84.04 70.5526 83.528C70.3606 83.016 70.0513 82.6214 69.6246 82.344C69.2193 82.0667 68.7286 81.928 68.1526 81.928C67.5766 81.928 67.0859 82.0667 66.6806 82.344C66.2966 82.6214 65.9979 83.016 65.7846 83.528C65.5713 84.04 65.4646 84.6374 65.4646 85.32V85.384ZM88.2086 95.72C86.0753 95.72 84.3046 95.4214 82.8966 94.824C81.4886 94.2054 80.4219 93.4054 79.6966 92.424C78.9713 91.4427 78.5873 90.3974 78.5446 89.288C78.5446 89.1174 78.6086 88.968 78.7366 88.84C78.8859 88.6907 79.0566 88.616 79.2486 88.616H83.2806C83.5793 88.616 83.8033 88.6694 83.9526 88.776C84.1233 88.8827 84.2726 89.0214 84.4006 89.192C84.5713 89.512 84.8059 89.8214 85.1046 90.12C85.4246 90.4187 85.8299 90.664 86.3206 90.856C86.8326 91.0267 87.4619 91.112 88.2086 91.112C89.4459 91.112 90.3739 90.92 90.9926 90.536C91.6326 90.152 91.9526 89.6294 91.9526 88.968C91.9526 88.4987 91.7819 88.1147 91.4406 87.816C91.0993 87.496 90.5446 87.2187 89.7766 86.984C89.0299 86.728 88.0273 86.472 86.7686 86.216C85.1473 85.8747 83.7606 85.4374 82.6086 84.904C81.4779 84.3494 80.6139 83.6347 80.0166 82.76C79.4193 81.864 79.1206 80.7547 79.1206 79.432C79.1206 78.1307 79.4833 76.968 80.2086 75.944C80.9553 74.92 81.9899 74.12 83.3126 73.544C84.6353 72.968 86.2033 72.68 88.0166 72.68C89.4886 72.68 90.7793 72.872 91.8886 73.256C93.0193 73.64 93.9686 74.152 94.7366 74.792C95.5046 75.432 96.0806 76.1147 96.4646 76.84C96.8699 77.544 97.0833 78.2374 97.1046 78.92C97.1046 79.0907 97.0406 79.2507 96.9126 79.4C96.7846 79.528 96.6246 79.592 96.4326 79.592H92.2086C91.9739 79.592 91.7713 79.5494 91.6006 79.464C91.4299 79.3787 91.2806 79.24 91.1526 79.048C91.0246 78.5787 90.6833 78.1734 90.1286 77.832C89.5953 77.4694 88.8913 77.288 88.0166 77.288C87.0779 77.288 86.3419 77.4587 85.8086 77.8C85.2966 78.12 85.0406 78.6214 85.0406 79.304C85.0406 79.7307 85.1793 80.104 85.4566 80.424C85.7553 80.744 86.2353 81.0214 86.8966 81.256C87.5793 81.4907 88.5073 81.736 89.6806 81.992C91.6219 82.3547 93.1899 82.8134 94.3846 83.368C95.5793 83.9014 96.4539 84.6054 97.0086 85.48C97.5633 86.3334 97.8406 87.4107 97.8406 88.712C97.8406 90.1627 97.4246 91.4214 96.5926 92.488C95.7819 93.5334 94.6513 94.3334 93.2006 94.888C91.7499 95.4427 90.0859 95.72 88.2086 95.72ZM101.492 95.4C101.257 95.4 101.065 95.3254 100.916 95.176C100.767 95.0267 100.692 94.8347 100.692 94.6V79.56C100.692 79.3254 100.767 79.1334 100.916 78.984C101.065 78.8347 101.257 78.76 101.492 78.76H105.268C105.481 78.76 105.663 78.8347 105.812 78.984C105.983 79.1334 106.068 79.3254 106.068 79.56V94.6C106.068 94.8347 105.983 95.0267 105.812 95.176C105.663 95.3254 105.481 95.4 105.268 95.4H101.492ZM101.46 76.36C101.225 76.36 101.033 76.2854 100.884 76.136C100.735 75.9867 100.66 75.7947 100.66 75.56V72.712C100.66 72.4774 100.735 72.2854 100.884 72.136C101.033 71.9654 101.225 71.88 101.46 71.88H105.268C105.503 71.88 105.695 71.9654 105.844 72.136C106.015 72.2854 106.1 72.4774 106.1 72.712V75.56C106.1 75.7947 106.015 75.9867 105.844 76.136C105.695 76.2854 105.503 76.36 105.268 76.36H101.46ZM112.505 95.4C112.292 95.4 112.1 95.3254 111.929 95.176C111.78 95.0267 111.705 94.8347 111.705 94.6V82.952H109.273C109.038 82.952 108.846 82.8774 108.697 82.728C108.548 82.5787 108.473 82.3867 108.473 82.152V79.56C108.473 79.3254 108.548 79.1334 108.697 78.984C108.846 78.8347 109.038 78.76 109.273 78.76H111.705V77.736C111.705 76.2854 111.982 75.1227 112.537 74.248C113.113 73.352 113.924 72.712 114.969 72.328C116.014 71.9227 117.262 71.72 118.713 71.72H121.209C121.422 71.72 121.604 71.7947 121.753 71.944C121.924 72.0934 122.009 72.2854 122.009 72.52V75.112C122.009 75.3467 121.924 75.5387 121.753 75.688C121.604 75.8374 121.422 75.912 121.209 75.912H118.969C118.244 75.912 117.732 76.0827 117.433 76.424C117.156 76.7654 117.017 77.256 117.017 77.896V78.76H120.889C121.102 78.76 121.284 78.8347 121.433 78.984C121.604 79.1334 121.689 79.3254 121.689 79.56V82.152C121.689 82.3867 121.604 82.5787 121.433 82.728C121.284 82.8774 121.102 82.952 120.889 82.952H117.017V94.6C117.017 94.8347 116.942 95.0267 116.793 95.176C116.644 95.3254 116.452 95.4 116.217 95.4H112.505ZM132.485 95.4C131.12 95.4 129.936 95.1867 128.933 94.76C127.952 94.312 127.195 93.6294 126.661 92.712C126.128 91.7734 125.861 90.568 125.861 89.096V82.952H123.365C123.131 82.952 122.928 82.8774 122.757 82.728C122.608 82.5787 122.533 82.3867 122.533 82.152V79.56C122.533 79.3254 122.608 79.1334 122.757 78.984C122.928 78.8347 123.131 78.76 123.365 78.76H125.861V73.48C125.861 73.2454 125.936 73.0534 126.085 72.904C126.256 72.7547 126.448 72.68 126.661 72.68H130.373C130.608 72.68 130.8 72.7547 130.949 72.904C131.099 73.0534 131.173 73.2454 131.173 73.48V78.76H135.173C135.408 78.76 135.6 78.8347 135.749 78.984C135.899 79.1334 135.973 79.3254 135.973 79.56V82.152C135.973 82.3867 135.899 82.5787 135.749 82.728C135.6 82.8774 135.408 82.952 135.173 82.952H131.173V88.648C131.173 89.3734 131.312 89.9494 131.589 90.376C131.867 90.8027 132.336 91.016 132.997 91.016H135.461C135.696 91.016 135.888 91.0907 136.037 91.24C136.187 91.3894 136.261 91.5814 136.261 91.816V94.6C136.261 94.8347 136.187 95.0267 136.037 95.176C135.888 95.3254 135.696 95.4 135.461 95.4H132.485Z" fill="#4B2E83"/>
</g>
<defs>
<filter id="filter0_d_495_744" x="0" y="0" width="228" height="228" filterUnits="userSpaceOnUse" color-interpolation-filters="sRGB">
<feFlood flood-opacity="0" result="BackgroundImageFix"/>
<feColorMatrix in="SourceAlpha" type="matrix" values="0 0 0 0 0 0 0 0 0 0 0 0 0 0 0 0 0 0 127 0" result="hardAlpha"/>
<feOffset dy="4"/>
<feGaussianBlur stdDeviation="2"/>
<feComposite in2="hardAlpha" operator="out"/>
<feColorMatrix type="matrix" values="0 0 0 0 0 0 0 0 0 0 0 0 0 0 0 0 0 0 0.25 0"/>
<feBlend mode="normal" in2="BackgroundImageFix" result="effect1_dropShadow_495_744"/>
<feBlend mode="normal" in="SourceGraphic" in2="effect1_dropShadow_495_744" result="shape"/>
</filter>
<filter id="filter1_d_495_744" x="0" y="0" width="228" height="228" filterUnits="userSpaceOnUse" color-interpolation-filters="sRGB">
<feFlood flood-opacity="0" result="BackgroundImageFix"/>
<feColorMatrix in="SourceAlpha" type="matrix" values="0 0 0 0 0 0 0 0 0 0 0 0 0 0 0 0 0 0 127 0" result="hardAlpha"/>
<feOffset dy="4"/>
<feGaussianBlur stdDeviation="2"/>
<feComposite in2="hardAlpha" operator="out"/>
<feColorMatrix type="matrix" values="0 0 0 0 0 0 0 0 0 0 0 0 0 0 0 0 0 0 0.25 0"/>
<feBlend mode="normal" in2="BackgroundImageFix" result="effect1_dropShadow_495_744"/>
<feBlend mode="normal" in="SourceGraphic" in2="effect1_dropShadow_495_744" result="shape"/>
</filter>
<clipPath id="clip0_495_744">
<rect width="220" height="220" fill="white" transform="translate(4)"/>
</clipPath>
</defs>
</svg>
